G04 #@! TF.GenerationSoftware,KiCad,Pcbnew,(6.0.0)*
G04 #@! TF.CreationDate,2023-04-26T16:34:12+03:00*
G04 #@! TF.ProjectId,AccLoad,4163634c-6f61-4642-9e6b-696361645f70,rev?*
G04 #@! TF.SameCoordinates,Original*
G04 #@! TF.FileFunction,Copper,L2,Bot*
G04 #@! TF.FilePolarity,Positive*
%FSLAX46Y46*%
G04 Gerber Fmt 4.6, Leading zero omitted, Abs format (unit mm)*
G04 Created by KiCad (PCBNEW (6.0.0)) date 2023-04-26 16:34:12*
%MOMM*%
%LPD*%
G01*
G04 APERTURE LIST*
G04 Aperture macros list*
%AMRoundRect*
0 Rectangle with rounded corners*
0 $1 Rounding radius*
0 $2 $3 $4 $5 $6 $7 $8 $9 X,Y pos of 4 corners*
0 Add a 4 corners polygon primitive as box body*
4,1,4,$2,$3,$4,$5,$6,$7,$8,$9,$2,$3,0*
0 Add four circle primitives for the rounded corners*
1,1,$1+$1,$2,$3*
1,1,$1+$1,$4,$5*
1,1,$1+$1,$6,$7*
1,1,$1+$1,$8,$9*
0 Add four rect primitives between the rounded corners*
20,1,$1+$1,$2,$3,$4,$5,0*
20,1,$1+$1,$4,$5,$6,$7,0*
20,1,$1+$1,$6,$7,$8,$9,0*
20,1,$1+$1,$8,$9,$2,$3,0*%
G04 Aperture macros list end*
G04 #@! TA.AperFunction,NonConductor*
%ADD10C,0.250000*%
G04 #@! TD*
G04 #@! TA.AperFunction,Profile*
%ADD11C,0.250000*%
G04 #@! TD*
G04 #@! TA.AperFunction,Profile*
%ADD12C,0.100000*%
G04 #@! TD*
G04 #@! TA.AperFunction,SMDPad,CuDef*
%ADD13C,1.000000*%
G04 #@! TD*
G04 #@! TA.AperFunction,ComponentPad*
%ADD14RoundRect,0.250002X-1.699998X-1.699998X1.699998X-1.699998X1.699998X1.699998X-1.699998X1.699998X0*%
G04 #@! TD*
G04 #@! TA.AperFunction,ConnectorPad*
%ADD15C,3.800000*%
G04 #@! TD*
G04 #@! TA.AperFunction,ComponentPad*
%ADD16C,2.600000*%
G04 #@! TD*
G04 #@! TA.AperFunction,ComponentPad*
%ADD17RoundRect,0.250000X0.350000X0.625000X-0.350000X0.625000X-0.350000X-0.625000X0.350000X-0.625000X0*%
G04 #@! TD*
G04 #@! TA.AperFunction,ComponentPad*
%ADD18O,1.200000X1.750000*%
G04 #@! TD*
G04 #@! TA.AperFunction,ViaPad*
%ADD19C,0.800000*%
G04 #@! TD*
G04 #@! TA.AperFunction,Conductor*
%ADD20C,0.500000*%
G04 #@! TD*
G04 APERTURE END LIST*
D10*
X154157000Y-84942000D02*
X155457000Y-84942000D01*
X155457000Y-84942000D02*
X155457000Y-88942000D01*
X155457000Y-88942000D02*
X154157000Y-88942000D01*
X154157000Y-88942000D02*
X154157000Y-84942000D01*
G36*
X155457000Y-88942000D02*
G01*
X154157000Y-88942000D01*
X154157000Y-84942000D01*
X155457000Y-84942000D01*
X155457000Y-88942000D01*
G37*
X155457000Y-88942000D02*
X154157000Y-88942000D01*
X154157000Y-84942000D01*
X155457000Y-84942000D01*
X155457000Y-88942000D01*
X153257000Y-88942000D02*
X151957000Y-88942000D01*
X151957000Y-88942000D02*
X151957000Y-84942000D01*
X151957000Y-84942000D02*
X153257000Y-84942000D01*
X153257000Y-84942000D02*
X153257000Y-88942000D01*
G36*
X153257000Y-88942000D02*
G01*
X151957000Y-88942000D01*
X151957000Y-84942000D01*
X153257000Y-84942000D01*
X153257000Y-88942000D01*
G37*
X153257000Y-88942000D02*
X151957000Y-88942000D01*
X151957000Y-84942000D01*
X153257000Y-84942000D01*
X153257000Y-88942000D01*
X151057000Y-84942000D02*
X151057000Y-88942000D01*
X151057000Y-88942000D02*
X149757000Y-88942000D01*
X149757000Y-88942000D02*
X149757000Y-84942000D01*
X149757000Y-84942000D02*
X151057000Y-84942000D01*
G36*
X151057000Y-88942000D02*
G01*
X149757000Y-88942000D01*
X149757000Y-84942000D01*
X151057000Y-84942000D01*
X151057000Y-88942000D01*
G37*
X151057000Y-88942000D02*
X149757000Y-88942000D01*
X149757000Y-84942000D01*
X151057000Y-84942000D01*
X151057000Y-88942000D01*
D11*
X163957000Y-107442000D02*
X163957000Y-67942000D01*
X158357000Y-77192000D02*
G75*
G03*
X158357000Y-77192000I-900000J0D01*
G01*
X163957000Y-67942000D02*
X104757000Y-67942000D01*
X132357000Y-77192000D02*
G75*
G03*
X132357000Y-77192000I-900000J0D01*
G01*
X104757000Y-67942000D02*
X104757000Y-107442000D01*
X104757000Y-107442000D02*
X163957000Y-107442000D01*
D12*
X132958601Y-71943907D02*
X155955736Y-71943907D01*
X155955736Y-71943907D02*
X155955736Y-82447233D01*
X155955736Y-82447233D02*
X132958601Y-82447233D01*
X132958601Y-82447233D02*
X132958601Y-71943907D01*
G36*
X132958601Y-71943907D02*
G01*
X155955736Y-71943907D01*
X155955736Y-82447233D01*
X132958601Y-82447233D01*
X132958601Y-71943907D01*
G37*
D13*
X152636000Y-86865000D03*
D14*
X115967010Y-90445548D03*
D15*
X122664000Y-99311000D03*
D16*
X122664000Y-99311000D03*
D17*
X154956102Y-99242699D03*
D18*
X152956102Y-99242699D03*
X150956102Y-99242699D03*
X148956102Y-99242699D03*
D16*
X115933000Y-99184000D03*
D15*
X115933000Y-99184000D03*
D14*
X121134109Y-90437019D03*
D13*
X154795000Y-86992000D03*
D14*
X126257189Y-90445044D03*
D19*
X152636000Y-85595000D03*
X145270000Y-101343000D03*
X150096000Y-91183000D03*
D20*
X154795000Y-91945000D02*
X150956102Y-95783898D01*
X154795000Y-86992000D02*
X154795000Y-91945000D01*
X150956102Y-95783898D02*
X150956102Y-99242699D01*
X152636000Y-86865000D02*
X152636000Y-85595000D01*
X150096000Y-91183000D02*
X145270000Y-96009000D01*
X145270000Y-96009000D02*
X145270000Y-101343000D01*
M02*
