G04 #@! TF.GenerationSoftware,KiCad,Pcbnew,(6.0.0)*
G04 #@! TF.CreationDate,2023-04-26T16:34:12+03:00*
G04 #@! TF.ProjectId,AccLoad,4163634c-6f61-4642-9e6b-696361645f70,rev?*
G04 #@! TF.SameCoordinates,Original*
G04 #@! TF.FileFunction,Copper,L1,Top*
G04 #@! TF.FilePolarity,Positive*
%FSLAX46Y46*%
G04 Gerber Fmt 4.6, Leading zero omitted, Abs format (unit mm)*
G04 Created by KiCad (PCBNEW (6.0.0)) date 2023-04-26 16:34:12*
%MOMM*%
%LPD*%
G01*
G04 APERTURE LIST*
G04 Aperture macros list*
%AMRoundRect*
0 Rectangle with rounded corners*
0 $1 Rounding radius*
0 $2 $3 $4 $5 $6 $7 $8 $9 X,Y pos of 4 corners*
0 Add a 4 corners polygon primitive as box body*
4,1,4,$2,$3,$4,$5,$6,$7,$8,$9,$2,$3,0*
0 Add four circle primitives for the rounded corners*
1,1,$1+$1,$2,$3*
1,1,$1+$1,$4,$5*
1,1,$1+$1,$6,$7*
1,1,$1+$1,$8,$9*
0 Add four rect primitives between the rounded corners*
20,1,$1+$1,$2,$3,$4,$5,0*
20,1,$1+$1,$4,$5,$6,$7,0*
20,1,$1+$1,$6,$7,$8,$9,0*
20,1,$1+$1,$8,$9,$2,$3,0*%
G04 Aperture macros list end*
G04 #@! TA.AperFunction,NonConductor*
%ADD10C,0.200000*%
G04 #@! TD*
G04 #@! TA.AperFunction,Profile*
%ADD11C,0.250000*%
G04 #@! TD*
G04 #@! TA.AperFunction,Profile*
%ADD12C,0.100000*%
G04 #@! TD*
G04 #@! TA.AperFunction,SMDPad,CuDef*
%ADD13RoundRect,0.249999X-1.425001X0.450001X-1.425001X-0.450001X1.425001X-0.450001X1.425001X0.450001X0*%
G04 #@! TD*
G04 #@! TA.AperFunction,SMDPad,CuDef*
%ADD14RoundRect,0.250000X-0.350000X-0.450000X0.350000X-0.450000X0.350000X0.450000X-0.350000X0.450000X0*%
G04 #@! TD*
G04 #@! TA.AperFunction,ComponentPad*
%ADD15RoundRect,0.250002X-1.699998X-1.699998X1.699998X-1.699998X1.699998X1.699998X-1.699998X1.699998X0*%
G04 #@! TD*
G04 #@! TA.AperFunction,ComponentPad*
%ADD16C,2.600000*%
G04 #@! TD*
G04 #@! TA.AperFunction,ConnectorPad*
%ADD17C,3.800000*%
G04 #@! TD*
G04 #@! TA.AperFunction,ComponentPad*
%ADD18RoundRect,0.250000X0.350000X0.625000X-0.350000X0.625000X-0.350000X-0.625000X0.350000X-0.625000X0*%
G04 #@! TD*
G04 #@! TA.AperFunction,ComponentPad*
%ADD19O,1.200000X1.750000*%
G04 #@! TD*
G04 #@! TA.AperFunction,SMDPad,CuDef*
%ADD20RoundRect,0.250000X0.350000X0.450000X-0.350000X0.450000X-0.350000X-0.450000X0.350000X-0.450000X0*%
G04 #@! TD*
G04 #@! TA.AperFunction,ViaPad*
%ADD21C,0.800000*%
G04 #@! TD*
G04 #@! TA.AperFunction,Conductor*
%ADD22C,0.500000*%
G04 #@! TD*
G04 APERTURE END LIST*
D10*
X143873000Y-102613000D02*
X121267000Y-102613000D01*
X121267000Y-102613000D02*
X121267000Y-100835000D01*
X121267000Y-100835000D02*
X143873000Y-100835000D01*
X143873000Y-100835000D02*
X143873000Y-102613000D01*
G36*
X143873000Y-102613000D02*
G01*
X121267000Y-102613000D01*
X121267000Y-100835000D01*
X143873000Y-100835000D01*
X143873000Y-102613000D01*
G37*
X114790000Y-92326000D02*
X117203000Y-92326000D01*
X117203000Y-92326000D02*
X117203000Y-97787000D01*
X117203000Y-97787000D02*
X114790000Y-97787000D01*
X114790000Y-97787000D02*
X114790000Y-92326000D01*
G36*
X114790000Y-92326000D02*
G01*
X117203000Y-92326000D01*
X117203000Y-97787000D01*
X114790000Y-97787000D01*
X114790000Y-92326000D01*
G37*
X127871000Y-95374000D02*
X143873000Y-95374000D01*
X143873000Y-95374000D02*
X143873000Y-93850000D01*
X143873000Y-93850000D02*
X127871000Y-93850000D01*
X127871000Y-93850000D02*
X127871000Y-95374000D01*
G36*
X127871000Y-95374000D02*
G01*
X143873000Y-95374000D01*
X143873000Y-93850000D01*
X127871000Y-93850000D01*
X127871000Y-95374000D01*
G37*
X130411000Y-94739000D02*
X127744000Y-94739000D01*
X127744000Y-94739000D02*
X127744000Y-89659000D01*
X127744000Y-89659000D02*
X130411000Y-89659000D01*
X130411000Y-89659000D02*
X130411000Y-94739000D01*
G36*
X130411000Y-94739000D02*
G01*
X127744000Y-94739000D01*
X127744000Y-89659000D01*
X130411000Y-89659000D01*
X130411000Y-94739000D01*
G37*
D11*
X163957000Y-107442000D02*
X163957000Y-67942000D01*
X158357000Y-77192000D02*
G75*
G03*
X158357000Y-77192000I-900000J0D01*
G01*
X163957000Y-67942000D02*
X104757000Y-67942000D01*
X132357000Y-77192000D02*
G75*
G03*
X132357000Y-77192000I-900000J0D01*
G01*
X104757000Y-67942000D02*
X104757000Y-107442000D01*
X104757000Y-107442000D02*
X163957000Y-107442000D01*
D12*
X132958601Y-71943907D02*
X155955736Y-71943907D01*
X155955736Y-71943907D02*
X155955736Y-82447233D01*
X155955736Y-82447233D02*
X132958601Y-82447233D01*
X132958601Y-82447233D02*
X132958601Y-71943907D01*
G36*
X132958601Y-71943907D02*
G01*
X155955736Y-71943907D01*
X155955736Y-82447233D01*
X132958601Y-82447233D01*
X132958601Y-71943907D01*
G37*
D13*
X138073334Y-95247000D03*
X138073334Y-101347000D03*
D14*
X151525000Y-91183000D03*
X153525000Y-91183000D03*
D15*
X115967010Y-90445548D03*
D13*
X129014000Y-95247000D03*
X129014000Y-101347000D03*
D14*
X142635000Y-86992000D03*
X144635000Y-86992000D03*
D16*
X122664000Y-99311000D03*
D17*
X122664000Y-99311000D03*
D18*
X154956102Y-99242699D03*
D19*
X152956102Y-99242699D03*
X150956102Y-99242699D03*
X148956102Y-99242699D03*
D20*
X144635000Y-90675000D03*
X142635000Y-90675000D03*
D16*
X115933000Y-99184000D03*
D17*
X115933000Y-99184000D03*
D13*
X142603000Y-95247000D03*
X142603000Y-101347000D03*
X133543668Y-95247000D03*
X133543668Y-101347000D03*
D15*
X121134109Y-90437019D03*
X126257189Y-90445044D03*
D21*
X152636000Y-85595000D03*
X145270000Y-101343000D03*
X150096000Y-91183000D03*
D22*
X150604000Y-95247000D02*
X142603000Y-95247000D01*
X150956102Y-99242699D02*
X150956102Y-95599102D01*
X142635000Y-95215000D02*
X142603000Y-95247000D01*
X129014000Y-95247000D02*
X129014000Y-93201855D01*
X142635000Y-90675000D02*
X142635000Y-95215000D01*
X138073334Y-95247000D02*
X133543668Y-95247000D01*
X133543668Y-95247000D02*
X129014000Y-95247000D01*
X150956102Y-95599102D02*
X150604000Y-95247000D01*
X129014000Y-93201855D02*
X126257189Y-90445044D01*
X142603000Y-95247000D02*
X138073334Y-95247000D01*
X152956102Y-99242699D02*
X152956102Y-93662102D01*
X152636000Y-93342000D02*
X147429000Y-93342000D01*
X145905000Y-90675000D02*
X147302000Y-92072000D01*
X145905000Y-90675000D02*
X144635000Y-90675000D01*
X147429000Y-93342000D02*
X147302000Y-93215000D01*
X147302000Y-92072000D02*
X147302000Y-93215000D01*
X152956102Y-93662102D02*
X152636000Y-93342000D01*
X144635000Y-86992000D02*
X144635000Y-90675000D01*
X142635000Y-84801000D02*
X142635000Y-86992000D01*
X152509000Y-83690000D02*
X143746000Y-83690000D01*
X115967010Y-90445548D02*
X115967010Y-86703990D01*
X115933000Y-90479558D02*
X115967010Y-90445548D01*
X115967010Y-86703990D02*
X117965000Y-84706000D01*
X152636000Y-83817000D02*
X152509000Y-83690000D01*
X115933000Y-99184000D02*
X115933000Y-90479558D01*
X142730000Y-84706000D02*
X142635000Y-84801000D01*
X143746000Y-83690000D02*
X142730000Y-84706000D01*
X117965000Y-84706000D02*
X142730000Y-84706000D01*
X152636000Y-85595000D02*
X152636000Y-83817000D01*
X154956102Y-99242699D02*
X154922000Y-99208597D01*
X154922000Y-91183000D02*
X153525000Y-91183000D01*
X154922000Y-99208597D02*
X154922000Y-91183000D01*
X124192000Y-101347000D02*
X122664000Y-99819000D01*
X129014000Y-101347000D02*
X124192000Y-101347000D01*
X122664000Y-99819000D02*
X122664000Y-99311000D01*
X145270000Y-101343000D02*
X142607000Y-101343000D01*
X151525000Y-91183000D02*
X150096000Y-91183000D01*
X138073334Y-101347000D02*
X133543668Y-101347000D01*
X142607000Y-101343000D02*
X142603000Y-101347000D01*
X133543668Y-101347000D02*
X129014000Y-101347000D01*
X142603000Y-101347000D02*
X138073334Y-101347000D01*
M02*
